# File created by Blade
# Date/Time:  Fri Jan 16 19:00:24 2015
# Frame Rate: 120.000 fps
#------------------------------------------------------
:FULLY-SPECIFIED
:DEGREES
2729
root 17.845505 36.347351 -21.814025 -151.187397 12.805244 -168.911157
Spine -24.924089 15.350891 -3.160831
Head 6.202964 -3.915112 7.395201
LeftShoulder -12.001631 -23.834647 13.662908
LeftArm -9.882112 -9.981300 -16.304173
LeftForeArm -6.986226 -0.000000 2.481491
LeftHand -2.132799 -0.000000 0.392660
LeftHandThumb1 -26.253704 0.000000 33.147579
RightShoulder -13.264801 -10.335337 6.784338
RightArm 5.687901 41.178381 45.270193
RightForeArm -36.368074 -0.000000 45.562598
RightHand -13.982483 -0.000000 -2.489148
RightHandThumb1 -24.326973 -0.000000 -32.862282
LeftUpLeg -23.255464 12.247215 -4.116044
LeftLeg -3.681830 -0.000000 0.000000
LeftFoot -21.169233 30.205476 -13.680644
LeftToeBase 17.596520 -0.000000 -0.000000
RightUpLeg 9.993605 -7.127669 -4.555914
RightLeg 56.564415 -0.000000 -0.000000
RightFoot 32.233550 -39.697683 -15.445223
RightToeBase 19.180570 -0.000000 -0.000000
2730
root 17.842538 36.382043 -21.807935 -150.448876 12.927472 -168.461225
Spine -25.630401 15.627425 -2.917501
Head 6.363135 -3.800514 7.260807
LeftShoulder -12.118058 -23.807362 13.683967
LeftArm -9.977411 -10.138343 -16.349901
LeftForeArm -6.884753 -0.000000 2.510605
LeftHand -2.153005 0.000000 0.277394
LeftHandThumb1 -26.253704 0.000000 33.147579
RightShoulder -13.306743 -10.451595 6.763638
RightArm 5.541119 41.349740 45.214394
RightForeArm -36.521996 -0.000000 45.979850
RightHand -14.045440 -0.000000 -2.196672
RightHandThumb1 -24.326973 -0.000000 -32.862282
LeftUpLeg -23.967115 12.639483 -3.966087
LeftLeg -3.595696 -0.000000 0.000000
LeftFoot -21.142167 29.937280 -13.677754
LeftToeBase 17.567538 -0.000000 -0.000000
RightUpLeg 10.672643 -7.583496 -5.346237
RightLeg 56.723979 -0.000000 -0.000000
RightFoot 32.591708 -39.667568 -15.746903
RightToeBase 19.102267 -0.000000 -0.000000
2731
root 17.840607 36.418505 -21.797892 -149.719523 13.090196 -167.999648
Spine -26.329001 15.990928 -2.731178
Head 6.497484 -3.707624 7.165394
LeftShoulder -12.144105 -23.813861 13.689117
LeftArm -10.114774 -10.019996 -16.404361
LeftForeArm -7.019707 -0.000000 2.548167
LeftHand -2.112815 -0.000000 0.179347
LeftHandThumb1 -26.253704 0.000000 33.147579
RightShoulder -13.396058 -10.367330 6.762644
RightArm 5.213999 41.427250 45.000015
RightForeArm -36.694438 0.000000 46.364002
RightHand -14.032387 -0.000000 -2.204214
RightHandThumb1 -24.326973 -0.000000 -32.862282
LeftUpLeg -24.662795 13.077269 -3.834937
LeftLeg -3.532587 -0.000000 0.000000
LeftFoot -21.095513 29.677270 -13.702980
LeftToeBase 17.496123 -0.000000 -0.000000
RightUpLeg 11.325213 -8.046647 -6.252290
RightLeg 56.969297 -0.000000 -0.000000
RightFoot 33.013779 -39.693563 -16.203182
RightToeBase 19.043518 -0.000000 -0.000000
2732
root 17.841737 36.458394 -21.788424 -149.018009 13.196259 -167.456092
Spine -26.943871 16.302652 -2.358788
Head 6.603542 -3.569723 7.023159
LeftShoulder -12.246085 -23.865634 13.706679
LeftArm -10.337007 -10.009520 -16.434335
LeftForeArm -6.960020 -0.000000 2.643099
LeftHand -2.090169 0.000000 0.132601
LeftHandThumb1 -26.253704 0.000000 33.147579
RightShoulder -13.418568 -10.461637 6.738916
RightArm 5.030155 41.627480 44.909856
RightForeArm -36.705452 -0.000000 46.796122
RightHand -14.183604 0.000000 -2.139001
RightHandThumb1 -24.326973 -0.000000 -32.862282
LeftUpLeg -25.325465 13.554458 -3.625173
LeftLeg -3.461708 -0.000000 0.000000
LeftFoot -21.064884 29.407707 -13.687284
LeftToeBase 17.485495 -0.000000 -0.000000
RightUpLeg 11.980446 -8.345669 -6.986617
RightLeg 57.257795 -0.000000 -0.000000
RightFoot 33.108062 -40.051010 -16.062375
RightToeBase 18.451327 -0.000000 -0.000000
2733
root 17.847176 36.503298 -21.777700 -148.275665 13.259415 -166.829291
Spine -27.564750 16.626767 -1.888096
Head 6.651333 -3.364288 6.884992
LeftShoulder -12.373334 -23.854750 13.700995
LeftArm -10.523107 -10.044102 -16.455073
LeftForeArm -6.971329 -0.000000 2.722375
LeftHand -2.100987 -0.000000 0.127594
LeftHandThumb1 -26.253704 0.000000 33.147579
RightShoulder -13.502595 -10.466837 6.710486
RightArm 4.823709 41.837301 44.771478
RightForeArm -36.978633 -0.000000 47.169370
RightHand -14.068109 -0.000000 -2.125892
RightHandThumb1 -24.326973 -0.000000 -32.862282
LeftUpLeg -25.999004 14.016939 -3.323931
LeftLeg -3.421066 -0.000000 0.000000
LeftFoot -20.995963 29.216190 -13.597692
LeftToeBase 17.499528 -0.000000 -0.000000
RightUpLeg 12.576030 -8.509427 -7.573791
RightLeg 57.613098 -0.000000 -0.000000
RightFoot 33.362174 -40.355284 -16.225015
RightToeBase 18.752138 -0.000000 -0.000000
2734
root 17.853341 36.553995 -21.751438 -147.492768 13.438436 -166.134856
Spine -28.184757 17.097405 -1.468725
Head 6.658154 -3.212201 6.780987
LeftShoulder -12.395246 -23.962467 13.728243
LeftArm -10.875465 -10.031918 -16.437190
LeftForeArm -6.933452 -0.000000 2.831293
LeftHand -2.097808 0.000000 0.170731
LeftHandThumb1 -26.253704 0.000000 33.147579
RightShoulder -13.492079 -10.430808 6.696945
RightArm 4.417864 42.114086 44.519649
RightForeArm -37.209277 0.000000 47.611146
RightHand -13.961024 -0.000000 -2.026409
RightHandThumb1 -24.326973 -0.000000 -32.862282
LeftUpLeg -26.717017 14.607613 -3.034595
LeftLeg -3.369339 -0.000000 0.000000
LeftFoot -20.907036 28.999564 -13.526406
LeftToeBase 17.459754 -0.000000 -0.000000
RightUpLeg 13.002719 -8.399095 -8.075922
RightLeg 58.189220 -0.000000 -0.000000
RightFoot 33.561161 -40.587902 -16.443096
RightToeBase 18.848581 -0.000000 -0.000000
2735
root 17.861204 36.607093 -21.729952 -146.766216 13.499879 -165.392669
Spine -28.675701 17.499107 -0.858200
Head 6.569892 -3.004804 6.610805
LeftShoulder -12.465167 -24.013320 13.693073
LeftArm -11.223336 -10.283663 -16.355897
LeftForeArm -6.687222 -0.000000 2.917976
LeftHand -2.047254 0.000000 0.218772
LeftHandThumb1 -26.253704 0.000000 33.147579
RightShoulder -13.543157 -10.324890 6.653169
RightArm 4.093094 42.178375 44.239384
RightForeArm -37.211303 -0.000000 47.999661
RightHand -14.174148 -0.000000 -2.138859
RightHandThumb1 -24.326973 -0.000000 -32.862282
LeftUpLeg -27.349833 15.114025 -2.625788
LeftLeg -3.344738 -0.000000 0.000000
LeftFoot -20.809803 28.824760 -13.429563
LeftToeBase 17.479333 -0.000000 -0.000000
RightUpLeg 13.474213 -8.290349 -8.495781
RightLeg 58.808649 -0.000000 -0.000000
RightFoot 33.822088 -40.825362 -16.574726
RightToeBase 18.860623 -0.000000 -0.000000
2736
root 17.870671 36.664035 -21.701763 -146.030602 13.585235 -164.605830
Spine -29.119882 17.920930 -0.199834
Head 6.409939 -2.702897 6.427459
LeftShoulder -12.512353 -24.126611 13.653533
LeftArm -11.705481 -10.061531 -16.287302
LeftForeArm -6.868244 -0.000000 3.093435
LeftHand -2.063131 -0.000000 0.345348
LeftHandThumb1 -26.253704 0.000000 33.147579
RightShoulder -13.526582 -10.311512 6.566858
RightArm 3.776234 42.513803 44.076992
RightForeArm -37.500457 -0.000000 48.404036
RightHand -13.992623 0.000000 -2.016033
RightHandThumb1 -24.326973 -0.000000 -32.862282
LeftUpLeg -27.971671 15.653656 -2.187707
LeftLeg -3.345884 -0.000000 0.000000
LeftFoot -20.702546 28.668145 -13.379136
LeftToeBase 17.461705 -0.000000 -0.000000
RightUpLeg 13.852806 -8.006363 -8.824928
RightLeg 59.574564 -0.000000 -0.000000
RightFoot 33.991298 -41.051458 -16.642334
RightToeBase 18.955061 -0.000000 -0.000000
2737
root 17.885520 36.724265 -21.672284 -145.318585 13.660708 -163.741589
Spine -29.466863 18.382844 0.533956
Head 6.161206 -2.451631 6.256886
LeftShoulder -12.572263 -24.311851 13.655931
LeftArm -12.249412 -10.059711 -16.169412
LeftForeArm -6.811900 -0.000000 3.255374
LeftHand -2.037144 0.000000 0.464235
LeftHandThumb1 -26.253704 0.000000 33.147579
RightShoulder -13.429681 -10.064406 6.487680
RightArm 3.121053 42.574926 43.557856
RightForeArm -37.485408 0.000000 48.797041
RightHand -14.089985 -0.000000 -2.100895
RightHandThumb1 -24.326973 -0.000000 -32.862282
LeftUpLeg -28.520053 16.203254 -1.655078
LeftLeg -3.401844 -0.000000 0.000000
LeftFoot -20.618087 28.581055 -13.358670
LeftToeBase 17.533755 -0.000000 -0.000000
RightUpLeg 14.196952 -7.573492 -9.031071
RightLeg 60.447145 -0.000000 -0.000000
RightFoot 34.208535 -41.190050 -16.785010
RightToeBase 19.185042 -0.000000 -0.000000
2738
root 17.897574 36.784124 -21.636820 -144.635177 13.751256 -162.896078
Spine -29.744570 18.839592 1.291482
Head 5.882205 -2.150163 5.984757
LeftShoulder -12.550774 -24.486466 13.608749
LeftArm -12.924900 -10.065598 -15.975450
LeftForeArm -6.757631 0.000000 3.442203
LeftHand -2.108714 -0.000000 0.629306
LeftHandThumb1 -26.253704 0.000000 33.147579
RightShoulder -13.473229 -10.113167 6.387778
RightArm 3.068386 42.917193 43.586959
RightForeArm -37.711601 -0.000000 49.145123
RightHand -14.072668 -0.000000 -2.043529
RightHandThumb1 -24.326973 -0.000000 -32.862282
LeftUpLeg -29.026217 16.714926 -1.115089
LeftLeg -3.465655 -0.000000 0.000000
LeftFoot -20.489394 28.513945 -13.298887
LeftToeBase 17.513535 -0.000000 -0.000000
RightUpLeg 14.495351 -6.995391 -9.203495
RightLeg 61.442870 -0.000000 -0.000000
RightFoot 34.388690 -41.291144 -16.916232
RightToeBase 19.331117 -0.000000 -0.000000
